<svg xmlns="http://www.w3.org/2000/svg" viewBox="0 0 612 792"><g fill="#00539B"><path d="M272.88 404.225a3.398 3.398 0 0 1-3.395-3.395v-8.892a3.399 3.399 0 0 1 3.395-3.395h66.776a3.399 3.399 0 0 1 3.395 3.395v8.892a3.398 3.398 0 0 1-3.395 3.395H272.88z"/><path d="M339.656 388.848a3.09 3.09 0 0 1 3.09 3.09v8.892a3.09 3.09 0 0 1-3.09 3.09H272.88a3.09 3.09 0 0 1-3.09-3.09v-8.892a3.09 3.09 0 0 1 3.09-3.09h66.776m0-.609H272.88a3.703 3.703 0 0 0-3.699 3.699v8.892a3.703 3.703 0 0 0 3.699 3.699h66.777a3.703 3.703 0 0 0 3.699-3.699v-8.892a3.705 3.705 0 0 0-3.7-3.699z"/></g><path d="M279.514 392.094c-.625-.405-1.469-.459-2.213-.459h-3.809v8.841h2.401v-2.644h1.361c1.995 0 3.234-1.325 3.234-3.457 0-1.11-.319-1.856-.974-2.281zm-3.621 1.801h1.149c.416 0 1.114.114 1.114.879 0 .613-.465 1.008-1.185 1.008h-1.079v-1.887zm7.964-.239c-2.063 0-2.943 1.009-2.943 3.375 0 2.324 1.045 3.604 2.943 3.604s2.943-1.28 2.943-3.604c0-2.366-.88-3.375-2.943-3.375zm0 5.305c-.773 0-1.164-.649-1.164-1.931 0-1.003.381-1.49 1.164-1.49s1.164.487 1.164 1.49c0 1.282-.391 1.931-1.164 1.931zm9.287-1.147l-.632-3.948-.008-.051h-2.114l-.64 3.999-.773-3.999h-1.882l1.616 6.661h2.065l.671-4.305.67 4.305h2.066l1.597-6.586.018-.075h-1.881zm3.162 2.662h4.484v-1.673h-2.758v-.83h2.758V396.3h-2.758v-.76h2.758v-1.725h-4.484zm10.61-4.855c0-1.587-1.084-1.806-2.255-1.806h-2.943v6.661h1.832v-2.454l1.402 2.454h2.194l-1.906-2.859c.828-.052 1.676-.682 1.676-1.996zm-3.366-.133h.812c.469 0 .723.09.723.565 0 .359-.237.6-.591.6h-.944v-1.165zm9.396-3.853h-2.471v8.841h5.491v-2.261h-3.02zm3.859 8.841h4.483v-1.673h-2.758v-.83h2.758V396.3h-2.758v-.76h2.758v-1.725h-4.483zm9.503-6.661h-2.737l-1.802 6.584-.021.077h1.863l.353-1.41h1.844l.371 1.41h1.915l-1.774-6.616-.012-.045zm-.925 3.631h-1.01l.544-2.158.466 2.158zm6.13-.933c-1.12-.298-1.303-.386-1.303-.628 0-.356.566-.45.864-.45.314 0 1.376.06 1.834.834l.113.192v-2.166l-.025-.018c-.555-.405-1.28-.62-2.098-.62-1.484 0-2.52.939-2.52 2.282 0 1.015.56 1.628 1.815 1.988 1.192.342 1.296.415 1.296.638 0 .392-.537.45-.856.45-.663 0-1.59-.346-1.931-.905l-.112-.185v2.011l.026.018c.659.465 1.35.681 2.177.681 1.204 0 2.423-.735 2.423-2.141-.001-1.012-.573-1.679-1.703-1.981zm6.912-.973v-1.725h-4.484v6.661h4.484v-1.673h-2.758v-.83h2.758V396.3h-2.758v-.76z"/><path d="M279.514 391.484c-.625-.405-1.469-.459-2.213-.459h-3.809v8.841h2.401v-2.644h1.361c1.995 0 3.234-1.325 3.234-3.457 0-1.11-.319-1.856-.974-2.281zm-3.621 1.802h1.149c.416 0 1.114.114 1.114.879 0 .612-.465 1.008-1.185 1.008h-1.079v-1.887zm7.964-.24c-2.063 0-2.943 1.009-2.943 3.375 0 2.324 1.045 3.604 2.943 3.604s2.943-1.28 2.943-3.604c0-2.365-.88-3.375-2.943-3.375zm0 5.305c-.773 0-1.164-.649-1.164-1.931 0-1.003.381-1.49 1.164-1.49s1.164.487 1.164 1.49c0 1.282-.391 1.931-1.164 1.931zm9.287-1.147l-.632-3.948-.008-.051h-2.114l-.64 3.999-.773-3.999h-1.882l1.616 6.661h2.065l.671-4.304.67 4.304h2.066l1.597-6.586.018-.075h-1.881zm3.162 2.662h4.484v-1.673h-2.758v-.83h2.758v-1.673h-2.758v-.759h2.758v-1.726h-4.484zm10.61-4.855c0-1.587-1.084-1.806-2.255-1.806h-2.943v6.661h1.832v-2.454l1.402 2.454h2.194l-1.906-2.859c.828-.052 1.676-.681 1.676-1.996zm-3.366-.133h.812c.469 0 .723.09.723.565 0 .359-.237.6-.591.6h-.944v-1.165zm9.396-3.853h-2.471v8.841h5.491v-2.261h-3.02zm3.859 8.841h4.483v-1.673h-2.758v-.83h2.758v-1.673h-2.758v-.759h2.758v-1.726h-4.483zm9.503-6.661h-2.737l-1.802 6.584-.021.077h1.863l.353-1.41h1.844l.371 1.41h1.915l-1.774-6.616-.012-.045zm-.925 3.631h-1.01l.544-2.158.466 2.158zm6.13-.932c-1.12-.298-1.303-.386-1.303-.628 0-.356.566-.45.864-.45.314 0 1.376.06 1.834.834l.113.192v-2.166l-.025-.018c-.555-.405-1.28-.62-2.098-.62-1.484 0-2.52.939-2.52 2.282 0 1.015.56 1.628 1.815 1.988 1.192.342 1.296.415 1.296.638 0 .392-.537.45-.856.45-.663 0-1.59-.346-1.931-.905l-.112-.185v2.011l.026.018c.659.465 1.35.681 2.177.681 1.204 0 2.423-.735 2.423-2.141-.001-1.013-.573-1.68-1.703-1.981zm6.912-.973v-1.726h-4.484v6.661h4.484v-1.673h-2.758v-.83h2.758v-1.673h-2.758v-.759z" fill="#FFF"/></svg>