<svg xmlns="http://www.w3.org/2000/svg" viewBox="0 0 612 792"><path fill="#F91" d="M316.955 398.857l1.408-.437c.064-.503.101-1.014.101-1.534 0-.466-.03-.925-.081-1.377l-1.423-.445-.464-1.73 1.028-1.111a11.976 11.976 0 0 0-1.44-2.511l-1.49.335-1.258-1.263.338-1.491a11.96 11.96 0 0 0-2.502-1.448l-1.119 1.03-1.728-.466-.446-1.438a12.013 12.013 0 0 0-1.415-.086c-.505 0-1.001.035-1.489.095l-.445 1.423-1.731.464-1.085-1.004c-.904.39-1.749.888-2.522 1.478l.321 1.427-1.262 1.259-1.406-.319a12.04 12.04 0 0 0-1.461 2.562l.958 1.039-.467 1.729-1.323.41c-.056.472-.088.95-.088 1.436 0 .522.037 1.035.102 1.539l1.305.408.463 1.73-.925.999c.393.927.901 1.794 1.502 2.585l1.323-.298 1.259 1.261-.299 1.32a11.975 11.975 0 0 0 2.587 1.506l.995-.917 1.729.467.402 1.294c.51.066 1.029.104 1.556.104.484 0 .96-.032 1.429-.088l.408-1.305 1.729-.464 1.023.946a11.985 11.985 0 0 0 2.575-1.462l-.311-1.385 1.262-1.259 1.405.319a11.939 11.939 0 0 0 1.491-2.529l-.987-1.072.468-1.726z"/><path fill="#F91" d="M306.463 405.581c-4.795 0-8.696-3.901-8.696-8.696s3.901-8.697 8.696-8.697 8.697 3.901 8.697 8.697c0 4.795-3.901 8.696-8.697 8.696z"/><path fill="#FFF" d="M306.463 388.731c4.496 0 8.154 3.658 8.154 8.154s-3.658 8.153-8.154 8.153-8.153-3.658-8.153-8.153c0-4.496 3.658-8.154 8.153-8.154m0-1.086a9.239 9.239 0 0 0-9.239 9.24 9.24 9.24 0 0 0 18.479 0c.001-5.103-4.136-9.24-9.24-9.24z"/><text transform="translate(302.97 400.656)" fill="#FFF" font-family="'SourceSansPro-Bold'" font-size="12">A</text></svg>