<svg xmlns="http://www.w3.org/2000/svg" viewBox="0 0 612 792"><path fill="#7F1919" d="M389.325 418.352H235.027a2.7 2.7 0 0 1-2.692-2.692v-36.012a2.7 2.7 0 0 1 2.692-2.692h154.298a2.7 2.7 0 0 1 2.692 2.692v36.012a2.7 2.7 0 0 1-2.692 2.692z"/><path fill="#9B201F" d="M389.325 416.021H235.027a2.7 2.7 0 0 1-2.692-2.692v-33.681a2.7 2.7 0 0 1 2.692-2.692h154.298a2.7 2.7 0 0 1 2.692 2.692v33.681a2.7 2.7 0 0 1-2.692 2.692z"/><path fill="#F91" d="M266.43 400.98l2.965-.921c.135-1.059.213-2.137.213-3.232 0-.981-.062-1.948-.171-2.901l-2.998-.937-.977-3.644 2.166-2.34a25.265 25.265 0 0 0-3.033-5.288l-3.137.706-2.651-2.659.712-3.141a25.241 25.241 0 0 0-5.27-3.049l-2.356 2.17-3.641-.982-.939-3.029a25.49 25.49 0 0 0-2.981-.181c-1.063 0-2.108.073-3.135.2l-.937 2.998-3.646.978-2.285-2.115a25.159 25.159 0 0 0-5.312 3.113l.676 3.005-2.658 2.653-2.961-.672a25.273 25.273 0 0 0-3.076 5.396l2.017 2.189-.983 3.642-2.787.864c-.118.993-.186 2-.186 3.025 0 1.1.077 2.18.214 3.242l2.749.86.976 3.644-1.948 2.105a25.33 25.33 0 0 0 3.164 5.444l2.787-.627 2.652 2.657-.63 2.781a25.2 25.2 0 0 0 5.448 3.172l2.095-1.93 3.642.983.846 2.725c1.074.14 2.167.219 3.278.219 1.019 0 2.022-.068 3.01-.185l.859-2.748 3.643-.978 2.155 1.993a25.266 25.266 0 0 0 5.424-3.079l-.656-2.917 2.658-2.653 2.96.672a25.24 25.24 0 0 0 3.141-5.327l-2.079-2.257.983-3.644z"/><path fill="#F91" d="M244.333 415.743c-10.431 0-18.917-8.486-18.917-18.917 0-10.431 8.486-18.918 18.917-18.918 10.432 0 18.919 8.487 18.919 18.918-.001 10.431-8.487 18.917-18.919 18.917z"/><path fill="#FFF" d="M244.332 378.452c10.133 0 18.376 8.243 18.376 18.375 0 10.131-8.243 18.374-18.376 18.374-10.131 0-18.374-8.243-18.374-18.374 0-10.132 8.243-18.375 18.374-18.375m0-1.086c-10.748 0-19.46 8.712-19.46 19.461 0 10.747 8.712 19.46 19.46 19.46 10.749 0 19.462-8.713 19.462-19.46 0-10.749-8.713-19.461-19.462-19.461z"/><path d="M235.427 404.814c-.674 0-1.28.606-1.28 1.28s.606 1.28 1.28 1.28c.673 0 1.28-.606 1.28-1.28s-.607-1.28-1.28-1.28zm8.822-19.598c.673 0 1.28-.606 1.28-1.28 0-.673-.606-1.28-1.28-1.28s-1.28.606-1.28 1.28c.001.674.607 1.28 1.28 1.28zm-.067 23.1c-.673 0-1.28.606-1.28 1.28s.606 1.28 1.28 1.28 1.28-.606 1.28-1.28-.607-1.28-1.28-1.28zm9.024-19.597c.673 0 1.28-.606 1.28-1.28s-.606-1.28-1.28-1.28c-.673 0-1.28.606-1.28 1.28.001.673.607 1.28 1.28 1.28zm-21.82 6.667c-.674 0-1.28.606-1.28 1.28 0 .673.606 1.28 1.28 1.28.673 0 1.28-.606 1.28-1.28s-.606-1.28-1.28-1.28zm19.396-.808h-5.859l-7.004-7.677c-2.155-2.155-5.59 1.078-3.502 3.3l7.745 8.418c.404.539 1.01.808 1.751.808h6.869c2.963-.001 3.3-4.849 0-4.849zm6.398.808c-.674 0-1.28.606-1.28 1.28 0 .673.606 1.28 1.28 1.28.673 0 1.28-.606 1.28-1.28-.001-.674-.607-1.28-1.28-1.28zm-3.57 9.024c-.674 0-1.28.606-1.28 1.28 0 .673.606 1.28 1.28 1.28.673 0 1.28-.606 1.28-1.28s-.606-1.28-1.28-1.28zm27.519-5.479h-2.398l-.48 1.859h-1.799l2.458-7.82h2.111l2.459 7.82h-1.871l-.48-1.859zm-.359-1.379l-.192-.72c-.216-.779-.42-1.703-.636-2.519h-.048a49.41 49.41 0 0 1-.611 2.519l-.192.72h1.679zm3.338-2.711h1.763v3.467c0 .852.228 1.127.744 1.127.444 0 .708-.192 1.056-.659v-3.935h1.763v5.949h-1.439l-.132-.828h-.036c-.504.6-1.055.972-1.871.972-1.295 0-1.847-.911-1.847-2.398v-3.695zm9.622-.144c.732 0 1.343.276 1.739.684l-.804 1.092c-.288-.24-.552-.348-.828-.348-.851 0-1.391.66-1.391 1.691 0 1.031.564 1.691 1.332 1.691.432 0 .779-.204 1.067-.432l.708 1.115a3.087 3.087 0 0 1-1.979.743c-1.655 0-2.938-1.14-2.938-3.118 0-1.979 1.451-3.118 3.094-3.118zm3.098 1.523h-.815v-1.308l.911-.072.204-1.583h1.463v1.583h1.427v1.379h-1.427v2.387c0 .671.3.947.768.947.192 0 .408-.061.564-.12l.276 1.283a4.284 4.284 0 0 1-1.319.216c-1.475 0-2.051-.924-2.051-2.303v-2.409zm4.212-3.178c0-.54.432-.912 1.02-.912.6 0 1.019.372 1.019.912s-.419.923-1.019.923c-.589 0-1.02-.383-1.02-.923zm.144 1.799h1.763v5.949h-1.763v-5.949zm5.866-.144c1.5 0 2.891 1.14 2.891 3.119 0 1.979-1.391 3.118-2.891 3.118-1.511 0-2.902-1.14-2.902-3.118-.001-1.98 1.391-3.119 2.902-3.119zm0 4.81c.72 0 1.092-.66 1.092-1.691 0-1.032-.372-1.691-1.092-1.691-.731 0-1.091.66-1.091 1.691-.001 1.031.359 1.691 1.091 1.691zm4.105-4.666h1.439l.12.755h.048c.504-.479 1.104-.899 1.906-.899 1.296 0 1.848.912 1.848 2.399v3.694h-1.764v-3.467c0-.863-.228-1.127-.731-1.127-.443 0-.72.204-1.104.576v4.018h-1.763v-5.949zm9.217-1.799c0-.54.432-.912 1.02-.912.6 0 1.02.372 1.02.912s-.42.923-1.02.923c-.588 0-1.02-.383-1.02-.923zm.144 1.799h1.764v5.949h-1.764v-5.949zm3.311 0h1.439l.12.755h.048c.504-.479 1.104-.899 1.907-.899 1.295 0 1.847.912 1.847 2.399v3.694h-1.763v-3.467c0-.863-.229-1.127-.732-1.127-.443 0-.719.204-1.103.576v4.018h-1.764v-5.949zm9.491-1.871h2.854c1.703 0 3.059.624 3.059 2.519 0 1.835-1.403 2.651-3.059 2.651h-1.079v2.65h-1.775v-7.82zm2.747 3.766c.972 0 1.439-.432 1.439-1.248 0-.815-.504-1.115-1.439-1.115h-.972v2.363h.972zm4.382-1.895h1.439l.12 1.043h.048c.432-.804 1.079-1.188 1.691-1.188.336 0 .539.048.707.12l-.288 1.523a2.222 2.222 0 0 0-.647-.096c-.443 0-.995.288-1.307 1.092v3.454h-1.764v-5.948zm7.21-.144c1.499 0 2.891 1.14 2.891 3.119 0 1.979-1.392 3.118-2.891 3.118-1.511 0-2.902-1.14-2.902-3.118 0-1.98 1.391-3.119 2.902-3.119zm0 4.81c.72 0 1.092-.66 1.092-1.691 0-1.032-.372-1.691-1.092-1.691-.731 0-1.091.66-1.091 1.691 0 1.031.36 1.691 1.091 1.691zm4.586 1.103v-.049c-.312-.203-.552-.516-.552-1.007 0-.432.287-.852.671-1.115v-.048a1.908 1.908 0 0 1-.804-1.548c0-1.427 1.176-2.147 2.459-2.147.336 0 .66.048.924.144h2.171v1.283h-.948c.108.18.192.468.192.78 0 1.368-1.031 2.003-2.339 2.003-.216 0-.456-.036-.72-.12-.155.132-.216.239-.216.443 0 .3.24.444.899.444h.96c1.463 0 2.267.443 2.267 1.511 0 1.235-1.283 2.135-3.322 2.135-1.392 0-2.494-.456-2.494-1.511.001-.491.3-.886.852-1.198zm1.919 1.607c.791 0 1.367-.323 1.367-.731 0-.372-.324-.468-.912-.468h-.611c-.408 0-.647-.023-.84-.072-.216.192-.323.372-.323.588 0 .444.527.683 1.319.683zm.671-5.373c0-.624-.348-.959-.815-.959s-.815.324-.815.959c0 .66.348.996.815.996s.815-.336.815-.996zm3.338-2.003h1.439l.12 1.043h.048c.432-.804 1.079-1.188 1.691-1.188.335 0 .539.048.707.12l-.288 1.523a2.222 2.222 0 0 0-.647-.096c-.443 0-.995.288-1.307 1.092v3.454h-1.764v-5.948zm7.115-.144c1.691 0 2.53 1.235 2.53 2.855 0 .312-.036.6-.071.743h-3.562c.156.899.756 1.296 1.547 1.296.444 0 .852-.132 1.283-.396l.588 1.067c-.611.42-1.403.672-2.11.672-1.703 0-3.011-1.151-3.011-3.118-.001-1.932 1.378-3.119 2.806-3.119zm1.031 2.507c0-.684-.288-1.164-.995-1.164-.552 0-1.031.372-1.151 1.164h2.146zm2.99 1.799c.54.407 1.032.623 1.535.623.528 0 .756-.191.756-.503 0-.396-.6-.576-1.211-.815-.72-.276-1.571-.768-1.571-1.752 0-1.103.899-1.859 2.278-1.859.912 0 1.584.372 2.1.756l-.792 1.055c-.432-.312-.84-.503-1.259-.503-.456 0-.672.167-.672.468 0 .384.552.527 1.163.755.756.276 1.607.696 1.607 1.787 0 1.079-.852 1.919-2.447 1.919-.779 0-1.679-.336-2.278-.827l.791-1.104zm5.315 0c.54.407 1.032.623 1.535.623.528 0 .756-.191.756-.503 0-.396-.6-.576-1.211-.815-.72-.276-1.571-.768-1.571-1.752 0-1.103.899-1.859 2.278-1.859.912 0 1.583.372 2.1.756l-.792 1.055c-.432-.312-.84-.503-1.26-.503-.455 0-.671.167-.671.468 0 .384.552.527 1.163.755.756.276 1.607.696 1.607 1.787 0 1.079-.852 1.919-2.447 1.919-.779 0-1.679-.336-2.278-.827l.791-1.104z" fill="#FFF"/></svg>