<svg xmlns="http://www.w3.org/2000/svg" viewBox="0 0 612 792"><path d="M388.323 417.352H237.027a2.7 2.7 0 0 1-2.692-2.692v-36.012a2.7 2.7 0 0 1 2.692-2.692h151.296a2.7 2.7 0 0 1 2.692 2.692v36.012a2.7 2.7 0 0 1-2.692 2.692z"/><path fill="#333" d="M388.323 415.021H237.027a2.7 2.7 0 0 1-2.692-2.692v-33.681a2.7 2.7 0 0 1 2.692-2.692h151.296a2.7 2.7 0 0 1 2.692 2.692v33.681a2.7 2.7 0 0 1-2.692 2.692z"/><path fill="#F91" d="M268.43 400.431l2.965-.921c.135-1.059.213-2.137.213-3.232 0-.981-.062-1.948-.171-2.901l-2.998-.937-.977-3.644 2.166-2.34a25.265 25.265 0 0 0-3.033-5.288l-3.137.706-2.651-2.659.712-3.141a25.241 25.241 0 0 0-5.27-3.049l-2.356 2.17-3.641-.982-.939-3.029a25.49 25.49 0 0 0-2.981-.181c-1.063 0-2.108.073-3.135.2l-.937 2.998-3.646.978-2.285-2.115a25.159 25.159 0 0 0-5.312 3.113l.676 3.005-2.658 2.653-2.961-.672a25.273 25.273 0 0 0-3.076 5.396l2.017 2.189-.983 3.642-2.787.864c-.118.993-.186 2-.186 3.025 0 1.1.077 2.18.214 3.242l2.749.86.976 3.644-1.948 2.105a25.33 25.33 0 0 0 3.164 5.444l2.787-.627 2.652 2.657-.63 2.781a25.2 25.2 0 0 0 5.448 3.172l2.095-1.93 3.642.983.846 2.725c1.074.14 2.167.219 3.278.219 1.019 0 2.022-.068 3.01-.185l.859-2.748 3.643-.978 2.155 1.993a25.266 25.266 0 0 0 5.424-3.079l-.656-2.917 2.658-2.653 2.96.672a25.24 25.24 0 0 0 3.141-5.327l-2.079-2.257.983-3.644z"/><path fill="#F91" d="M246.333 415.194c-10.431 0-18.917-8.486-18.917-18.917 0-10.431 8.486-18.918 18.917-18.918 10.432 0 18.919 8.487 18.919 18.918-.001 10.431-8.487 18.917-18.919 18.917z"/><path fill="#FFF" d="M246.332 377.903c10.133 0 18.376 8.243 18.376 18.375 0 10.131-8.243 18.374-18.376 18.374-10.131 0-18.374-8.243-18.374-18.374 0-10.132 8.243-18.375 18.374-18.375m0-1.086c-10.748 0-19.46 8.712-19.46 19.461 0 10.747 8.712 19.46 19.46 19.46 10.749 0 19.462-8.713 19.462-19.46 0-10.749-8.713-19.461-19.462-19.461zm33.08 15.153h1.763v4.378c0 1.535.479 2.062 1.355 2.062s1.392-.527 1.392-2.062v-4.378h1.703v4.198c0 2.626-1.067 3.766-3.094 3.766s-3.118-1.14-3.118-3.766v-4.198zm9.623 8.288v1.739h-1.763v-8.156h1.439l.12.588h.048c.468-.42 1.067-.732 1.691-.732 1.439 0 2.327 1.188 2.327 3.022 0 2.04-1.223 3.214-2.506 3.214-.516 0-.996-.228-1.416-.623l.06.948zm.947-1.764c.611 0 1.103-.527 1.103-1.751 0-1.067-.324-1.607-1.031-1.607-.36 0-.671.168-1.02.54v2.435c.313.287.649.383.948.383zm6.912-4.797c.732 0 1.343.276 1.739.684l-.804 1.092c-.288-.24-.552-.348-.828-.348-.851 0-1.391.66-1.391 1.691 0 1.032.564 1.692 1.332 1.692.432 0 .779-.204 1.067-.432l.708 1.115a3.087 3.087 0 0 1-1.979.743c-1.655 0-2.938-1.14-2.938-3.119 0-1.979 1.451-3.118 3.094-3.118zm5.076 0c1.5 0 2.891 1.14 2.891 3.118 0 1.979-1.391 3.119-2.891 3.119-1.511 0-2.902-1.14-2.902-3.119 0-1.979 1.391-3.118 2.902-3.118zm0 4.81c.72 0 1.092-.66 1.092-1.692 0-1.031-.372-1.691-1.092-1.691-.731 0-1.091.66-1.091 1.691 0 1.032.36 1.692 1.091 1.692zm4.106-4.666h1.439l.12.768h.048c.492-.492 1.02-.912 1.799-.912.84 0 1.344.36 1.644.996.527-.54 1.079-.996 1.871-.996 1.283 0 1.858.912 1.858 2.399v3.694h-1.763v-3.467c0-.863-.228-1.127-.731-1.127-.3 0-.636.192-1.02.576v4.018h-1.763v-3.467c0-.863-.229-1.127-.731-1.127-.288 0-.636.192-1.008.576v4.018h-1.763v-5.949zm10.14-1.799c0-.54.432-.912 1.02-.912.6 0 1.02.372 1.02.912s-.42.923-1.02.923c-.589 0-1.02-.383-1.02-.923zm.143 1.799h1.763v5.949h-1.763v-5.949zm3.313 0h1.439l.12.755h.048c.504-.479 1.104-.899 1.907-.899 1.295 0 1.847.912 1.847 2.399v3.694h-1.763v-3.467c0-.863-.229-1.127-.731-1.127-.444 0-.72.204-1.104.576v4.018h-1.764v-5.949zm7.344 5.769v-.049c-.312-.203-.552-.516-.552-1.007 0-.432.287-.852.671-1.115v-.048a1.905 1.905 0 0 1-.803-1.548c0-1.427 1.175-2.147 2.458-2.147.336 0 .66.048.924.144h2.171v1.283h-.947a1.6 1.6 0 0 1 .191.78c0 1.368-1.031 2.003-2.339 2.003-.216 0-.456-.036-.72-.12-.155.132-.216.239-.216.443 0 .3.24.444.899.444h.96c1.463 0 2.267.443 2.267 1.511 0 1.235-1.283 2.135-3.322 2.135-1.392 0-2.494-.456-2.494-1.511 0-.491.3-.886.852-1.198zm1.919 1.607c.791 0 1.367-.323 1.367-.731 0-.372-.324-.468-.912-.468h-.611c-.408 0-.647-.023-.84-.072-.216.192-.323.372-.323.588-.001.444.527.683 1.319.683zm.67-5.373c0-.624-.348-.959-.815-.959s-.815.324-.815.959c0 .66.348.996.815.996s.815-.337.815-.996zm9.649 2.087h-2.399l-.479 1.859h-1.799l2.459-7.82h2.11l2.459 7.82h-1.871l-.48-1.859zm-.36-1.38l-.191-.72c-.216-.779-.42-1.703-.636-2.519h-.048c-.18.828-.396 1.739-.612 2.519l-.191.72h1.678zm3.337-2.71h1.763v3.467c0 .852.229 1.127.744 1.127.443 0 .707-.192 1.055-.659v-3.935h1.764v5.949h-1.439l-.132-.828h-.036c-.504.6-1.056.972-1.871.972-1.295 0-1.847-.911-1.847-2.398v-3.695zm9.623-.144c.731 0 1.343.276 1.738.684l-.803 1.092c-.288-.24-.552-.348-.828-.348-.852 0-1.391.66-1.391 1.691 0 1.032.563 1.692 1.331 1.692.432 0 .779-.204 1.067-.432l.707 1.115a3.083 3.083 0 0 1-1.979.743c-1.655 0-2.938-1.14-2.938-3.119.002-1.979 1.453-3.118 3.096-3.118zm3.097 1.523h-.815v-1.308l.911-.072.204-1.583h1.463v1.583h1.428v1.379h-1.428v2.387c0 .671.3.947.768.947a1.7 1.7 0 0 0 .563-.12l.276 1.283a4.279 4.279 0 0 1-1.319.216c-1.476 0-2.051-.924-2.051-2.303v-2.409zm4.212-3.178c0-.54.432-.912 1.02-.912.6 0 1.02.372 1.02.912s-.42.923-1.02.923c-.588 0-1.02-.383-1.02-.923zm.144 1.799h1.764v5.949h-1.764v-5.949zm5.867-.144c1.499 0 2.891 1.14 2.891 3.118 0 1.979-1.392 3.119-2.891 3.119-1.511 0-2.902-1.14-2.902-3.119-.001-1.979 1.391-3.118 2.902-3.118zm0 4.81c.72 0 1.092-.66 1.092-1.692 0-1.031-.372-1.691-1.092-1.691-.731 0-1.091.66-1.091 1.691 0 1.032.359 1.692 1.091 1.692zm4.104-4.666h1.439l.12.755h.048c.504-.479 1.104-.899 1.907-.899 1.295 0 1.847.912 1.847 2.399v3.694h-1.763v-3.467c0-.863-.229-1.127-.732-1.127-.443 0-.719.204-1.103.576v4.018h-1.764v-5.949z"/><g fill="#FFF"><path d="M249.868 399.779h3.45v2.706h-3.45zm-5.204-3.716h3.45v2.706h-3.45zm5.204-3.719h3.45v2.706h-3.45zm0 3.719h3.45v2.706h-3.45zm-5.204-3.719h3.45v2.706h-3.45z"/><path d="M257.873 386.304a2.167 2.167 0 0 0-1.585-.651h-2.97v-1.25a.953.953 0 0 0-.981-.981.949.949 0 0 0-.702.279.959.959 0 0 0-.279.705v1.25h-3.985v-1.25a.953.953 0 0 0-.981-.981.953.953 0 0 0-.981.981v1.25h-3.985v-1.25a.953.953 0 0 0-.981-.981.953.953 0 0 0-.981.981v1.25h-2.97c-.621 0-1.155.218-1.585.651a2.158 2.158 0 0 0-.651 1.583v17.803h.012c.049.519.264.971.639 1.348.431.431.964.651 1.585.651h19.795c.621 0 1.155-.218 1.585-.651a2.17 2.17 0 0 0 .651-1.585V387.89a2.177 2.177 0 0 0-.65-1.586zm-21.656 1.585c0-.12.039-.174.068-.203s.083-.069.203-.069h2.968v1.25a.953.953 0 0 0 .981.981.953.953 0 0 0 .981-.981v-1.25h3.985v1.25a.953.953 0 0 0 .981.981.953.953 0 0 0 .981-.981v-1.25h3.99v1.25a.953.953 0 0 0 .981.981.953.953 0 0 0 .981-.981v-1.25h2.968c.12 0 .174.039.203.071.029.029.069.083.069.203v17.566c0 .12-.039.174-.071.203-.029.029-.083.071-.203.071h-19.792c-.12 0-.174-.039-.203-.071-.029-.029-.068-.083-.068-.203v-17.568h-.003z"/><path d="M244.664 399.779h3.45v2.706h-3.45zm-5.206 0h3.45v2.706h-3.45zm0-3.716h3.45v2.706h-3.45zm0-3.719h3.45v2.706h-3.45z"/></g></svg>