<svg xmlns="http://www.w3.org/2000/svg" viewBox="0 0 612 792"><g fill="#9B201F"><path d="M272.912 404.148a3.405 3.405 0 0 1-3.402-3.401v-8.891a3.406 3.406 0 0 1 3.402-3.402h67.23a3.405 3.405 0 0 1 3.401 3.402v8.891a3.404 3.404 0 0 1-3.401 3.401h-67.23z"/><path d="M340.142 388.767a3.09 3.09 0 0 1 3.09 3.09v8.891a3.09 3.09 0 0 1-3.09 3.09h-67.23a3.09 3.09 0 0 1-3.09-3.09v-8.891a3.09 3.09 0 0 1 3.09-3.09h67.23m0-.624h-67.23a3.718 3.718 0 0 0-3.714 3.714v8.891a3.718 3.718 0 0 0 3.714 3.714h67.23a3.718 3.718 0 0 0 3.714-3.714v-8.891a3.718 3.718 0 0 0-3.714-3.714z"/></g><path d="M274.444 390.939h3.818c2.6 0 2.703 1.88 2.423 3.187-.411 1.88-1.586 3.202-4.054 3.202h-1.087l-.866 4.097h-2.468l2.234-10.486zm1.498 4.568h.675c.984 0 1.351-.617 1.498-1.322.162-.808.029-1.424-.969-1.424h-.632l-.572 2.746zm6.214 6.073c-2.435 0-2.424-1.586-1.895-4.087.529-2.501 1.201-4.087 3.636-4.087 2.622 0 2.358 1.906 1.895 4.087-.463 2.181-1.014 4.087-3.636 4.087zm.253-1.234c.749 0 1.003-.694 1.466-2.854.463-2.16.496-2.854-.254-2.854-.727 0-.981.694-1.443 2.854-.463 2.16-.496 2.854.231 2.854zm4.549-6.787h1.851l-.507 5.597h.022l2.006-5.597h1.719l-.309 5.597h.022l1.851-5.597h1.785l-3.041 7.867h-2.049l.386-5.586h-.022l-1.95 5.586h-2.049l.285-7.867zm9.078 0h4.551l-.32 1.499h-2.7l-.341 1.575h2.534l-.309 1.498h-2.534l-.386 1.796h2.821l-.319 1.498h-4.672l1.675-7.866zm5.508 0h3.107c1.576 0 1.906.969 1.675 2.049-.243 1.146-.827 1.708-1.73 1.917v.022c1.146.165 1.047.903.849 1.961-.297 1.554-.276 1.708-.033 1.818l-.022.099h-1.994c-.088-.264-.044-.705.143-1.597.286-1.367.165-1.653-.419-1.653h-.705l-.694 3.25h-1.851l1.674-7.866zm1.146 3.317h.573c.749 0 1.069-.562 1.168-1.025.121-.595-.011-.991-.749-.991h-.562l-.43 2.016zm8.79-5.937h2.467l-1.806 8.489h3.569l-.426 1.997h-6.036l2.232-10.486zm6.053 2.62h4.551l-.32 1.499h-2.7l-.341 1.575h2.534l-.309 1.498h-2.534l-.386 1.796h2.821l-.319 1.498h-4.672l1.675-7.866zm6.962 0h2.314l.286 7.867h-1.917l.033-1.498h-1.884l-.595 1.498h-1.917l3.68-7.867zm.815 1.432h-.022l-1.388 3.503h1.344l.066-3.503zm4.418 4.033l-.055.275c-.122.595-.055 1.047.584 1.047.65 0 .937-.484 1.036-.936.363-1.696-3.228-.749-2.6-3.691.264-1.256 1.168-2.314 3.074-2.314 1.85 0 2.314.936 2.049 2.148l-.034.187h-1.784c.077-.375.088-.65.022-.826-.077-.187-.231-.276-.507-.276-.463 0-.793.276-.915.849-.352 1.642 3.206.815 2.612 3.592-.375 1.785-1.521 2.501-3.218 2.501-1.344 0-2.501-.407-2.148-2.049l.099-.506h1.785zm5.552-5.465h4.551l-.32 1.499h-2.7l-.341 1.575h2.534l-.309 1.498h-2.534l-.386 1.796h2.821l-.319 1.498h-4.672l1.675-7.866z"/><path d="M274.444 390.334h3.818c2.6 0 2.703 1.88 2.423 3.187-.411 1.88-1.586 3.202-4.054 3.202h-1.087l-.866 4.097h-2.468l2.234-10.486zm1.498 4.568h.675c.984 0 1.351-.617 1.498-1.322.162-.808.029-1.424-.969-1.424h-.632l-.572 2.746zm6.214 6.073c-2.435 0-2.424-1.586-1.895-4.087.529-2.501 1.201-4.087 3.636-4.087 2.622 0 2.358 1.906 1.895 4.087-.463 2.181-1.014 4.087-3.636 4.087zm.253-1.234c.749 0 1.003-.694 1.466-2.854.463-2.16.496-2.854-.254-2.854-.727 0-.981.694-1.443 2.854-.463 2.16-.496 2.854.231 2.854zm4.549-6.787h1.851l-.507 5.597h.022l2.006-5.597h1.719l-.309 5.597h.022l1.851-5.597h1.785l-3.041 7.867h-2.049l.386-5.586h-.022l-1.95 5.586h-2.049l.285-7.867zm9.078 0h4.551l-.32 1.499h-2.7l-.341 1.576h2.534l-.309 1.498h-2.534l-.386 1.796h2.821l-.319 1.498h-4.672l1.675-7.867zm5.508 0h3.107c1.576 0 1.906.969 1.675 2.049-.243 1.146-.827 1.708-1.73 1.917v.022c1.146.165 1.047.903.849 1.961-.297 1.554-.276 1.708-.033 1.818l-.022.099h-1.994c-.088-.264-.044-.705.143-1.597.286-1.367.165-1.653-.419-1.653h-.705l-.694 3.25h-1.851l1.674-7.866zm1.146 3.317h.573c.749 0 1.069-.562 1.168-1.025.121-.595-.011-.991-.749-.991h-.562l-.43 2.016zm8.79-5.937h2.467l-1.806 8.489h3.569l-.426 1.997h-6.036l2.232-10.486zm6.053 2.62h4.551l-.32 1.499h-2.7l-.341 1.576h2.534l-.309 1.498h-2.534l-.386 1.796h2.821l-.319 1.498h-4.672l1.675-7.867zm6.962 0h2.314l.286 7.867h-1.917l.033-1.498h-1.884l-.595 1.498h-1.917l3.68-7.867zm.815 1.433h-.022l-1.388 3.503h1.344l.066-3.503zm4.418 4.032l-.055.275c-.122.595-.055 1.047.584 1.047.65 0 .937-.484 1.036-.936.363-1.696-3.228-.749-2.6-3.691.264-1.256 1.168-2.314 3.074-2.314 1.85 0 2.314.936 2.049 2.148l-.034.187h-1.784c.077-.375.088-.65.022-.826-.077-.187-.231-.276-.507-.276-.463 0-.793.276-.915.849-.352 1.642 3.206.815 2.612 3.592-.375 1.785-1.521 2.501-3.218 2.501-1.344 0-2.501-.407-2.148-2.049l.099-.506h1.785zm5.552-5.465h4.551l-.32 1.499h-2.7l-.341 1.576h2.534l-.309 1.498h-2.534l-.386 1.796h2.821l-.319 1.498h-4.672l1.675-7.867z" fill="#FFF"/></svg>